# AST/ASF file generated using VICON BodyLanguage
# -----------------------------------------------
:version 1.10
:name VICON
:units
  mass 1.0
  length 0.45
  angle deg
:documentation
   .ast/.asf automatically generated from VICON data using
   VICON BodyBuilder and BodyLanguage model FoxedUp or BRILLIANT.MOD
:root
   order TX TY TZ RX RY RZ
   axis XYZ
   position 0 0 0  
   orientation 0 0 0 
:bonedata
  begin
     id 1 
     name lhipjoint
     direction 0.543289 -0.788407 0.288535 
     length 2.57127 
     axis 0 0 0  XYZ
  end
  begin
     id 2 
     name lfemur
     direction 0.34202 -0.939693 0  
     length 8.47298  
     axis 0 0 20  XYZ
    dof rx ry rz
    limits (-160.0 20.0)
           (-70.0 70.0)
           (-60.0 70.0)
  end
  begin
     id 3 
     name ltibia
     direction 0.34202 -0.939693 0   
     length 8.13367   
     axis 0 0 20   XYZ
    dof rx
    limits (-10.0 170.0)
  end
  begin
     id 4 
     name lfoot
     direction 0.114037 -0.313314 0.942778   
     length 2.67113   
     axis -90 7.62852e-016 20   XYZ
    dof rx rz
    limits (-45.0 90.0)
           (-70.0 20.0)
  end
  begin
     id 5 
     name ltoes
     direction 1.536e-011 -4.21847e-011 1   
     length 1.32217   
     axis -90 7.62852e-016 20   XYZ
    dof rx
    limits (-90.0 20.0)
  end
  begin
     id 6 
     name rhipjoint
     direction -0.571293 -0.770752 0.282074   
     length 2.63017  
     axis 0 0 0  XYZ 
  end
  begin
     id 7 
     name rfemur
     direction -0.34202 -0.939693 0   
     length 8.60885   
     axis 0 0 -20   XYZ
    dof rx ry rz
    limits (-160.0 20.0)
           (-70.0 70.0)
           (-70.0 60.0)
  end
  begin
     id 8 
     name rtibia
     direction -0.34202 -0.939693 0   
     length 8.07673   
     axis 0 0 -20   XYZ
    dof rx
    limits (-10.0 170.0)
 end
 begin
     id 9 
     name rfoot
     direction -0.121336 -0.333368 0.934956   
     length 2.81602  
     axis -90 -7.62852e-016 -20   XYZ
    dof rx rz
    limits (-45.0 90.0)
           (-20.0 70.0)
  end
  begin
     id 10 
     name rtoes
     direction -1.53491e-011 -4.21808e-011 1   
     length 1.38905   
     axis -90 -7.62852e-016 -20   XYZ
    dof rx
    limits (-90.0 20.0)
  end
  begin
     id 11 
     name lowerback
     direction 0.0136776 0.999869 -0.00861835   
     length 2.14087   
     axis 0 0 0   XYZ
    dof rx ry rz
    limits (-20.0 45.0)
           (-30.0 30.0)
           (-30.0 30.0)
  end
  begin
     id 12 
     name upperback
     direction -0.00789158 0.999804 0.0181308   
     length 2.14151   
     axis 0 0 0   XYZ
    dof rx ry rz
    limits (-20.0 45.0)
           (-30.0 30.0)
           (-30.0 30.0)
  end
  begin
     id 13 
     name thorax
     direction -0.0135231 0.999666 0.0220247   
     length 2.13644   
     axis 0 0 0   XYZ
    dof rx ry rz
    limits (-20.0 45.0)
           (-30.0 30.0)
           (-30.0 30.0)
  end
  begin
     id 14 
     name lowerneck
     direction -0.0392259 0.997317 0.0618018   
     length 1.65045   
     axis 0 0 0   XYZ
    dof rx ry rz
    limits (-20.0 45.0)
           (-30.0 30.0)
           (-30.0 30.0)
  end
  begin
     id 15 
     name upperneck
     direction 0.0765547 0.994276 -0.0745319   
     length 1.66045   
     axis 0 0 0   XYZ
    dof rx ry rz
    limits (-20.0 45.0)
           (-30.0 30.0)
           (-30.0 30.0)
  end
  begin
     id 16
     name head
     direction 0.0241564 0.999031 -0.036785  
     length 1.66594  
     axis 0 0 0   XYZ
    dof rx ry rz
    limits (-20.0 45.0)
           (-30.0 30.0)
           (-30.0 30.0)
  end
  begin
     id 17 
     name lclavicle
     direction 0.967398 0.249018 0.0461573  
     length 3.75176  
     axis 0 0 0   XYZ
    dof ry rz
    limits (-20.0 10.0)
           (0.0 20.0)
  end
  begin
     id 18 
     name lhumerus
     direction 1 -4.48963e-011 -3.05005e-027   
     length 5.93342   
     axis 180 -30 -90   XYZ
    dof rx ry rz
    limits (-60.0 90.0)
           (-90.0 90.0)
           (-90.0 90.0)
  end
  begin
     id 19
     name lradius
     direction 1 -4.48957e-011 1.07006e-026   
     length 3.94763   
     axis 180 -30 -90   XYZ
    dof rx
    limits (-10.0 170.0)
  end
  begin
     id 20
     name lwrist
     direction 1 -4.48978e-011 1.92422e-026   
     length 1.97382   
     axis -1.18182e-014 90 90   XYZ
    dof ry
    limits (-180.0 0.0)
 end
  begin
     id 21 
     name lhand
     direction 1 -4.48931e-011 3.84844e-026   
     length 0.560187   
     axis -2.45563e-014 90 90   XYZ
    dof rx rz
    limits (-90.0 90.0)
           (-45.0 45.0)
  end
  begin
     id 22 
     name lfingers
     direction 1 -4.48952e-011 7.69687e-026   
     length 0.451637   
     axis -4.91126e-014 90 90   XYZ
    dof rx
    limits (0.0 90.0)
  end
  begin
     id 23
     name lthumb
     direction 0.707107 -6.34901e-011 0.707107   
     length 0.648463   
     axis -90 45 2.85299e-015   XYZ
    dof rx rz
    limits (-45.0 45.0)
           (-45.0 45.0)
  end
  begin
     id 24 
     name rclavicle
     direction -0.965946 0.258716 0.00371831   
     length 3.63667  
     axis 0 0 0   XYZ 
    dof ry rz
    limits (-10.0 20.0)
           (-20.0 0.0)
  end
  begin
     id 25 
     name rhumerus
     direction -1 -4.48966e-011 -1.78361e-028  
     length 6.28647   
     axis 180 30 90   XYZ
    dof rx ry rz
    limits (-90.0 60.0)
           (-90.0 90.0)
           (-90.0 90.0)
  end
  begin
     id 26 
     name rradius
     direction -1 -4.48961e-011 1.05248e-026   
     length 3.81645   
     axis 180 30 90   XYZ
    dof rx
    limits (-10.0 170.0)
  end
  begin
     id 27 
     name rwrist
     direction -1 -4.48979e-011 1.92422e-026   
     length 1.90822   
     axis -1.18182e-014 -90 -90   XYZ
    dof ry
    limits (-180.0 0.0)
  end
  begin
     id 28
     name rhand
     direction -1 -4.48937e-011 3.84844e-026   
     length 0.646185   
     axis -2.45563e-014 -90 -90   XYZ
    dof rx rz
    limits (-90.0 90.0)
           (-45.0 45.0)
  end
  begin
     id 29
     name rfingers
     direction -1 -4.48953e-011 7.69687e-026   
     length 0.520971   
     axis -4.91126e-014 -90 -90   XYZ
    dof rx
    limits (0.0 90.0)
  end
  begin
     id 30
     name rthumb
     direction -0.707107 -6.3494e-011 0.707107   
     length 0.748013   
     axis -90 -45 -2.85299e-015   XYZ
    dof rx rz
    limits (-45.0 45.0)
           (-45.0 45.0)
  end
:hierarchy
  begin
    root lhipjoint rhipjoint lowerback
    lhipjoint lfemur
    lfemur ltibia
    ltibia lfoot
    lfoot ltoes
    rhipjoint rfemur
    rfemur rtibia
    rtibia rfoot
    rfoot rtoes
    lowerback upperback
    upperback thorax
    thorax lowerneck lclavicle rclavicle
    lowerneck upperneck
    upperneck head
    lclavicle lhumerus
    lhumerus lradius
    lradius lwrist
    lwrist lhand lthumb
    lhand lfingers
    rclavicle rhumerus
    rhumerus rradius
    rradius rwrist
    rwrist rhand rthumb
    rhand rfingers
  end

#!OML:ASF H:\HAZMAT1\Patient Classification 1\Patient 3\Session 1\dancer.ASF
:FULLY-SPECIFIED
:DEGREES
60
upperback -0.250604 -3.972700 0.888846
rfoot 31.425200 -14.635100
lradius 26.424900
lthumb 30.219299 50.853802
rradius 21.410801
lwrist -11.656000
rhand -10.446500 -26.080799
rhumerus -51.683800 -4.466410 -80.091400
lowerneck -7.202420 0.091408 1.468760
lhand 4.842010 23.306400
ltibia 41.681400
head 7.239910 -0.266829 -0.523766
rwrist 28.125200
lfingers 7.125020
rtoes 34.262199
lowerback 2.483410 -3.090450 4.680840
rfingers 7.125020
lclavicle 0.000000 -0.000000
upperneck 19.796700 -0.335118 -0.709314
rfemur -78.150101 7.033180 20.026600
thorax -1.903350 -2.029780 -1.529990
rclavicle 0.000000 -0.000000
rtibia 62.068501
lfoot -19.112600 12.915800
lhumerus 46.773800 -13.129500 54.171600
rthumb 15.553600 -55.475300
root 21.010099 18.906500 5.145180 -294.152008 -81.268402 -58.070702
ltoes 14.505000
lfemur -27.218100 -37.305199 -12.030100
61
upperback 0.759855 -4.398060 1.612460
rfoot 2.899500 -38.441502
lradius 35.001400
lthumb 11.559200 53.040798
rradius 29.849400
lwrist -7.231540
rhand -18.516300 -25.844000
rhumerus -44.653801 0.395778 -87.511803
lowerneck -4.621090 0.014944 0.509988
lhand -14.591000 23.379499
ltibia 47.025501
head 5.687730 -0.237563 -0.549874
rwrist 17.048300
lfingers 7.125020
rtoes 43.155899
lowerback 1.868950 -3.340760 4.119600
rfingers 7.125020
lclavicle 0.000000 -0.000000
upperneck 16.345699 -0.102379 -1.424670
rfemur -82.365700 19.163401 -18.092699
thorax -0.446889 -2.206450 -0.541269
rclavicle 0.000000 -0.000000
rtibia 37.745300
lfoot -24.719500 5.347060
lhumerus 60.930099 3.273870 43.141102
rthumb 7.772070 -55.681099
root 20.234200 18.432699 4.996820 -301.845001 -82.479698 -54.874199
ltoes 8.176360
lfemur -20.691099 -30.865499 -18.142700
62
upperback -0.810520 -2.448240 1.744610
rfoot -5.501390 -39.472599
lradius 28.770000
lthumb -1.600770 57.817299
rradius 21.271601
lwrist -12.444900
rhand -20.580700 -27.307199
rhumerus -38.271500 -4.588350 -78.184303
lowerneck -2.213850 -0.348819 -0.935496
lhand -28.222500 27.843599
ltibia 49.782799
head 4.740080 -0.485485 -0.704463
rwrist 25.618099
lfingers 7.125020
rtoes 45.566799
lowerback -0.789569 -1.802930 4.678780
rfingers 7.125020
lclavicle 0.000000 -0.000000
upperneck 14.614100 -0.330248 -2.702350
rfemur -71.104301 22.908100 -16.633200
thorax -0.508681 -1.255520 -0.833622
rclavicle 0.000000 -0.000000
rtibia 37.285198
lfoot -30.623699 7.227790
lhumerus 64.807503 12.457300 43.364399
rthumb 5.779180 -57.208302
root 18.775700 18.032301 4.733680 -293.657013 -84.944199 -64.020302
ltoes 6.671550
lfemur -14.155200 -30.502399 -23.024000
63
upperback -2.281160 -3.321300 1.467360
rfoot -2.627950 -36.855099
lradius 21.209101
lthumb -3.747640 56.688099
rradius 26.288099
lwrist -15.985400
rhand -23.272499 -27.627199
rhumerus -40.170200 -1.946680 -72.889801
lowerneck -2.713480 0.841342 0.092510
lhand -30.445499 26.741301
ltibia 49.795300
head 3.903430 0.449525 -1.018670
rwrist 20.562700
lfingers 7.125020
rtoes 42.601002
lowerback -1.940610 -2.442470 3.730330
rfingers 7.125020
lclavicle -0.000000 0.000000
upperneck 10.432700 1.299830 -3.174400
rfemur -62.521198 27.976900 -13.069200
thorax -1.379700 -1.721940 -0.598964
rclavicle -0.000000 0.000000
rtibia 37.631001
lfoot -30.591600 -1.169660
lhumerus 71.089500 19.344500 47.488701
rthumb 3.179990 -57.583199
root 16.817101 17.919600 4.198770 -277.442993 -87.216003 -78.992104
ltoes 2.880690
lfemur -8.696500 -25.015699 -24.203199
64
upperback -3.746930 -6.316550 1.445480
rfoot -0.397202 -31.352400
lradius 22.603100
lthumb 5.666970 50.251999
rradius 23.910801
lwrist -14.487600
rhand -22.633101 -27.793200
rhumerus -57.147999 -5.806820 -55.646702
lowerneck -4.346980 1.501690 1.113750
lhand -20.696899 20.347700
ltibia 33.573299
head 3.610750 0.939075 -1.158780
rwrist 21.691500
lfingers 7.125020
rtoes 5.566110
lowerback -3.687050 -4.619390 4.271970
rfingers 7.125020
lclavicle 0.000000 0.000000
upperneck 8.600100 2.147850 -3.208610
rfemur -43.435902 24.875601 5.179840
thorax -2.099160 -3.276120 -0.981863
rclavicle 0.000000 0.000000
rtibia 38.197102
lfoot -11.076400 -11.039100
lhumerus 74.060402 23.458599 41.649200
rthumb 3.797440 -57.739101
root 13.615000 18.653099 3.191670 -332.768005 -83.473900 -22.348600
ltoes -2.192070
lfemur 5.857240 -23.951099 -20.596600
65
upperback -3.773620 -5.020570 -1.100920
rfoot -6.400140 -22.685699
lradius 30.590799
lthumb 19.902901 44.406399
rradius 22.692400
lwrist -11.317300
rhand -23.486500 -32.818901
rhumerus -72.037697 -2.174570 -43.103901
lowerneck -2.474090 0.530430 0.107487
lhand -5.926610 15.405600
ltibia 73.587303
head 3.223550 0.282484 -0.461976
rwrist 17.145000
lfingers 7.125020
rtoes -7.154390
lowerback -2.622320 -3.674450 3.156970
rfingers 7.125020
lclavicle 0.000000 0.000000
upperneck 8.694560 0.741861 -1.441400
rfemur -27.369900 16.545799 15.791000
thorax -2.790810 -2.644900 -2.884780
rclavicle 0.000000 0.000000
rtibia 38.637798
lfoot 34.650600 1.058370
lhumerus 82.372704 35.523300 38.577702
rthumb 2.973310 -62.777901
root 10.326000 19.425600 2.099230 -368.421997 -83.648201 11.321200
ltoes 33.484798
lfemur -15.672500 -11.128100 -20.261600
66
upperback -3.022440 -2.252620 -2.353300
rfoot -10.435900 -20.535999
lradius 36.892799
lthumb 19.321400 47.376099
rradius 22.941500
lwrist -6.982740
rhand -20.248400 -31.348400
rhumerus -70.814598 0.282199 -46.016399
lowerneck -2.471280 -0.825569 -0.779252
lhand -6.531470 18.315901
ltibia 120.512001
head 3.020740 -0.612555 -0.123236
rwrist 18.156300
lfingers 7.125020
rtoes -0.668340
lowerback 0.640861 -1.664430 3.399710
rfingers 7.125020
lclavicle 0.000000 0.000000
upperneck 8.127660 -1.079790 -0.682294
rfemur -13.808500 15.282200 18.362301
thorax -3.706850 -1.281140 -4.251710
rclavicle 0.000000 0.000000
rtibia 26.169300
lfoot 44.001099 4.481330
lhumerus 95.076103 33.061600 53.479900
rthumb 6.099970 -61.240601
root 8.686700 19.818800 1.591880 -391.977997 -84.646599 33.886299
ltoes 42.427299
lfemur -58.902599 -14.393900 -27.255600
67
upperback -2.318820 -4.293970 -3.408870
rfoot -17.088699 -18.985701
lradius 36.436501
lthumb 16.037800 50.710098
rradius 28.434900
lwrist -4.272390
rhand -21.062599 -30.480301
rhumerus -62.435501 -0.732166 -55.838001
lowerneck -4.716470 1.649030 1.447650
lhand -9.943720 21.353901
ltibia 99.566704
head 3.795520 1.036040 -0.915610
rwrist 15.366700
lfingers 7.125020
rtoes 6.991400
lowerback 1.188830 -3.159640 2.864320
rfingers 7.125020
lclavicle 0.000000 0.000000
upperneck 8.945320 2.249070 -2.314040
rfemur -13.234300 10.198700 17.721300
thorax -3.537030 -2.292510 -4.938700
rclavicle 0.000000 0.000000
rtibia 28.546900
lfoot 41.568401 18.353300
lhumerus 71.304199 5.182010 55.813099
rthumb 5.313880 -60.393700
root 8.047800 19.618900 1.387760 -415.402008 -83.629997 57.596401
ltoes 45.527699
lfemur -73.973297 -11.186400 -11.879100
68
upperback -0.983947 -9.384640 -3.945320
rfoot -25.221500 -13.427000
lradius 22.062300
lthumb 10.369600 52.458698
rradius 27.278099
lwrist -20.578699
rhand -22.106800 -30.212601
rhumerus -63.337002 -6.878270 -64.528000
lowerneck -6.451320 6.493040 5.919430
lhand -15.824300 22.734400
ltibia 44.412300
head 3.701750 4.168380 -2.109770
rwrist 16.708000
lfingers 7.125020
rtoes 6.702370
lowerback 1.540030 -6.950830 2.186430
rfingers 7.125020
lclavicle 0.000000 0.000000
upperneck 6.214800 8.480020 -4.599040
rfemur -22.848400 3.405820 16.256701
thorax -2.888790 -4.802630 -4.830900
rclavicle 0.000000 0.000000
rtibia 43.412498
lfoot 30.009600 35.984699
lhumerus 28.318399 -11.041800 81.323402
rthumb 4.305670 -60.148800
root 7.649740 19.087299 1.372660 -410.052002 -81.878899 55.386299
ltoes 49.869499
lfemur -58.583500 -14.383300 13.360700
69
upperback 0.684737 -13.259000 -5.621620
rfoot -33.700600 -12.369200
lradius 10.346400
lthumb 11.472100 51.382401
rradius 22.902000
lwrist -42.563801
rhand -18.480801 -29.978600
rhumerus -64.804298 -12.099000 -67.889603
lowerneck -7.131380 9.875260 8.249200
lhand -14.681300 21.716299
ltibia 29.670900
head 3.031240 6.252450 -2.499370
rwrist 19.723499
lfingers 7.125020
rtoes 4.874210
lowerback 2.464710 -9.761800 0.888924
rfingers 7.125020
lclavicle 0.000000 -0.000000
upperneck 2.474030 12.687400 -5.366230
rfemur -31.365801 4.047890 10.148400
thorax -2.186900 -6.747010 -5.560270
rclavicle 0.000000 -0.000000
rtibia 57.514702
lfoot -24.363600 50.776798
lhumerus 0.935868 9.259260 96.373199
rthumb 7.806290 -59.814499
root 7.128460 18.288000 1.976980 -419.851013 -79.291496 68.553703
ltoes 53.995998
lfemur -53.264999 -35.519100 38.788799
70
upperback 0.695354 -13.387700 -4.709800
rfoot -38.649300 -14.063800
lradius 10.278500
lthumb 10.566200 50.778599
rradius 19.849400
lwrist -37.614498
rhand -15.194300 -29.832800
rhumerus -62.451401 -13.097300 -61.209400
lowerneck -6.458350 8.396120 6.799550
lhand -15.620600 21.064199
ltibia 25.970600
head 2.426000 5.338920 -2.432330
rwrist 23.484800
lfingers 7.125020
rtoes -5.380020
lowerback 1.322880 -9.935780 2.867400
rfingers 7.125020
lclavicle 0.000000 -0.000000
upperneck 1.744630 10.862500 -5.401140
rfemur -33.011799 2.747190 3.180960
thorax -1.784640 -6.796950 -5.851960
rclavicle 0.000000 -0.000000
rtibia 64.161903
lfoot 8.643120 46.488201
lhumerus -1.727510 3.119530 99.578697
rthumb 10.977400 -59.525799
root 6.505960 17.699301 3.594330 -409.877991 -77.061096 60.842899
ltoes 51.396999
lfemur -43.828602 -29.794800 29.617500
